<svg xmlns="http://www.w3.org/2000/svg" viewBox="0 0 960.85 327.87">
  <defs>
    <style>
      .bwt-11{fill:#ff88bd;stroke-width:0}
    </style>
  </defs>
  <path id="BWT" d="M960.84 97.09H823.56l-24.9 71.39h39.41v150.13h80.54V168.48h42.23zm-228.66 0-34.34 97.59-26.05-97.59h-60.67l-26.04 97.59-34.35-97.59h-81.85l77.28 221.52h66.67l28.63-107.8 28.63 107.8h66.67l77.27-221.52zm-285.83 107.8c16.48-10.31 27.44-28.61 27.44-49.47 0-32.21-26.12-58.33-58.33-58.33H294.8v221.52h132.5c32.28 0 58.45-26.17 58.45-58.45 0-25.61-16.48-47.36-39.4-55.26Zm-84-52.86h21.56c6.43 0 11.64 6.66 11.64 14.89s-5.21 14.89-11.64 14.89h-21.56v-29.77ZM395.3 270h-32.73v-32.39h32.73c7.18 0 13 7.25 13 16.19s-5.82 16.19-13 16.19Z" style="stroke-width:0;fill:#00174b;fill-rule:evenodd"/>
  <g id="Drop">
    <path d="M193.95 207.85c0 40.85-33.12 73.96-73.96 73.96s-73.96-33.12-73.96-73.96V26.57l35.78 20.66v160.62c0 21.08 17.1 38.18 38.18 38.18s38.18-17.1 38.18-38.18c0-14.13-7.68-26.48-19.1-33.08l-.07-.04-36.73-21.2V112.2l19.87 11.47 34.34 19.83.49.28.36.2c21.92 12.84 36.64 36.63 36.64 63.87Z" class="bwt-11"/>
    <path d="M239.98 207.85c0 66.27-53.72 119.99-119.99 119.99S0 274.12 0 207.85V0l35.79 20.66v187.19c0 46.51 37.7 84.21 84.2 84.21s84.21-37.7 84.21-84.21c0-16.1-4.51-31.15-12.35-43.93a84.7 84.7 0 0 0-29.04-28.6l-.72-.42-.46-.27-59.35-34.27V59.03l77.71 44.87c35.87 20.75 60 59.53 60 103.95Z" class="bwt-11"/>
  </g>
</svg>
